<svg id="Capa_1" enable-background="new 0 0 512 512" height="512" viewBox="0 0 512 512" width="512" xmlns="http://www.w3.org/2000/svg"><g><g><g><path d="m135.361 316.299h-35.003c-22.056 0-40-17.944-40-40v-35.991h30v35.991c0 5.514 4.486 10 10 10h35.003z" fill="#a0b3be"/></g><g><path d="m411.642 316.299h-35.003v-30h35.003c5.514 0 10-4.486 10-10v-35.991h30v35.991c0 22.056-17.945 40-40 40z" fill="#88a0ae"/></g></g><path d="m218.54 236.565v79.735h-58.178c-5.514 0-10-4.486-10-10v-65.993h-30v65.993c0 22.056 17.944 40 40 40h58.178v165.7h74.921v-275.435z" fill="#b5d2d6"/><path d="m361.639 240.308v65.993c0 5.514-4.486 10-10 10h-58.179v-79.736h-37.46v275.435h37.46v-165.699h58.178c22.056 0 40-17.944 40-40v-65.993z" fill="#a0b3be"/><g><path d="m256 0c-31.579 0-58.411 20.712-67.624 49.266-12.178-9.793-27.643-15.662-44.449-15.662-39.17 0-71.036 31.867-71.036 71.037v7.433h-1.854c-39.17-.001-71.037 31.866-71.037 71.036 0 39.169 31.867 71.036 71.036 71.036h185.184l13.936-123.599s-9.31-130.547-14.156-130.547z" fill="#fd697f"/></g><g><path d="m440.964 112.073h-1.854v-7.433c0-39.17-31.866-71.037-71.036-71.037-16.807 0-32.271 5.869-44.449 15.662-9.214-28.553-36.046-49.265-67.625-49.265v254.146h184.964c39.169 0 71.036-31.867 71.036-71.036 0-39.17-31.867-71.037-71.036-71.037z" fill="#fc445f"/></g></g></svg>