<svg id="Capa_1" enable-background="new 0 0 512 512" height="512" viewBox="0 0 512 512" width="512" xmlns="http://www.w3.org/2000/svg"><g><g><path d="m255.628 333.927-91.959-88.348h-57.88l106.841 103.685v162.736h42.998l18.342-99.904z" fill="#a14f42"/><g><path d="m363.746 229.421-108.118 104.506v178.073h42.998v-162.736l121.176-118.021z" fill="#873f30"/></g></g><g><path d="m387.154 0h-138.49c-53.446 0-100.845 33.999-117.947 84.601l197.444 164.349h58.992c68.635 0 124.474-55.839 124.474-124.475s-55.838-124.475-124.473-124.475z" fill="#00a66c"/><path d="m387.154 0h-69.459v248.964l69.459-.014c68.635 0 124.474-55.839 124.474-124.475s-55.839-124.475-124.474-124.475z" fill="#0d7669"/></g><g><path d="m196.246 74.389h-97.455c-54.268 0-98.419 44.151-98.419 98.419s44.151 98.419 98.419 98.419h97.454v-196.838z" fill="#97de3d"/></g><g><path d="m281.392 74.389-90.431.172v196.838l90.431-.172c54.268 0 98.419-44.151 98.419-98.419s-44.15-98.419-98.419-98.419z" fill="#59c36a"/></g></g></svg>