<svg id="Capa_1" enable-background="new 0 0 512 512" height="512" viewBox="0 0 512 512" width="512" xmlns="http://www.w3.org/2000/svg"><g><g><g><path d="m350.655 385.132h-189.309c-48.01 0-87.069-39.059-87.069-87.069v-210.994c0-48.01 39.059-87.069 87.069-87.069h189.309c48.009 0 87.069 39.059 87.069 87.069v210.993c-.001 48.01-39.06 87.07-87.069 87.07z" fill="#19a995"/></g></g><g><path d="m350.655 0h-94.655v385.132h94.655c48.01 0 87.069-39.059 87.069-87.069v-210.994c-.001-48.01-39.06-87.069-87.069-87.069z" fill="#0d7579"/></g><path d="m240.975 259.773h18.1v252.227h-18.1z" fill="#d9ad90"/><g><path d="m302.973 259.773c-.092 18.834-13.913 34.476-31.949 37.42v-37.42h-15.024v252.227h15.025v-184.543c34.646-3.12 61.901-32.261 61.998-67.683h-30.05z" fill="#cc9b7c"/></g></g></svg>