<svg id="Capa_1" enable-background="new 0 0 512 512" height="512" viewBox="0 0 512 512" width="512" xmlns="http://www.w3.org/2000/svg"><g><path d="m307.274 512v-187.426h-38.216v69.849h-71.919c-11.671 0-21.166-9.495-21.166-21.166v-27.325h-30.015v27.325c0 28.221 22.96 51.182 51.181 51.182h71.919v87.561z" fill="#a14f42"/><g><path d="m306.518 324.574h37.461v187.426h-37.461z" fill="#873f30"/></g><g><g><path d="m309.256.034c-.732-.022-1.465-.034-2.199-.034h-.053c-23.838 0-46.303 11.32-60.727 29.788-3.226-.41-6.489-.618-9.775-.62h-.056c-20.521 0-39.817 7.984-54.337 22.486-14.536 14.514-22.548 33.821-22.563 54.366-.002 3.286.201 6.548.607 9.774-18.501 14.408-29.855 36.88-29.872 60.737-.018 23.882 11.325 46.385 29.836 60.818-2.917 23.289 4.941 47.231 21.819 64.132 14.515 14.535 33.822 22.547 54.364 22.561h.053c3.268 0 6.513-.203 9.721-.607 14.409 18.501 36.88 29.856 60.737 29.872h.053c.799 0 1.596-.015 2.391-.04v-353.233z" fill="#fd697f"/></g><g><path d="m483.587 176.776c.018-23.857-11.306-46.346-29.787-60.779.409-3.227.616-6.489.619-9.775.015-20.542-7.97-39.86-22.486-54.395-14.514-14.535-33.822-22.547-54.365-22.562h-.053c-3.268 0-6.513.203-9.721.607-14.409-18.501-36.881-29.855-60.737-29.872h-.053c-.163 0-.324.013-.486.014v353.284c.098 0 .196.009.294.009h.053c23.838 0 46.303-11.32 60.726-29.788 3.227.41 6.49.617 9.776.62h.056c20.521 0 39.817-7.984 54.339-22.486 16.898-16.875 24.791-40.807 21.906-64.101 18.53-14.406 29.903-36.894 29.919-60.776z" fill="#fc445f"/></g></g><g><g><path d="m161.953 95.727c-.371-.008-.739-.033-1.111-.034h-.04c-17.858 0-34.687 8.481-45.493 22.315-2.417-.307-4.861-.463-7.323-.464h-.042c-15.373 0-29.828 5.981-40.706 16.845-10.889 10.873-16.892 25.336-16.903 40.728-.002 2.461.15 4.905.455 7.322-13.86 10.794-22.366 27.628-22.378 45.5-.013 17.891 8.484 34.749 22.351 45.561-2.186 17.447 3.702 35.383 16.345 48.044 10.874 10.889 25.337 16.891 40.726 16.901h.04c2.448 0 4.879-.152 7.283-.455 10.794 13.86 27.628 22.366 45.5 22.378h.04c.42 0 .836-.028 1.255-.037v-264.604z" fill="#feb4bf"/></g><g><path d="m293.088 228.123c.013-17.872-8.47-34.719-22.314-45.532.307-2.417.462-4.861.464-7.323.011-15.389-5.971-29.861-16.845-40.749-10.873-10.889-25.337-16.891-40.727-16.902h-.04c-2.448 0-4.879.152-7.283.455-10.794-13.859-27.628-22.366-45.5-22.378h-.04c-.122 0-.242.01-.364.011v264.658c.074 0 .146.007.22.007h.04c17.858 0 34.687-8.48 45.492-22.315 2.418.307 4.862.463 7.324.464h.042c15.373 0 29.828-5.981 40.707-16.845 12.659-12.642 18.572-30.57 16.411-48.021 13.88-10.793 22.4-27.64 22.413-45.53z" fill="#fd8f9f"/></g></g></g></svg>