<svg id="Capa_1" enable-background="new 0 0 512 512" height="512" viewBox="0 0 512 512" width="512" xmlns="http://www.w3.org/2000/svg"><g><g><g><path d="m92.122 354.847h1.959c11.717 0 21.25 9.533 21.25 21.25v84.12c0 11.717-9.533 21.25-21.25 21.25l-.157 30.533h138.472l-.357-30.534c-11.717 0-21.25-9.533-21.25-21.25v-84.12c0-11.717 9.533-21.25 21.25-21.25h1.959v-14.75h-141.876z" fill="#efe2dd"/><path d="m232.038 324.861c-11.717 0-21.25-9.533-21.25-21.25v-90.118c0-11.628 9.391-21.093 20.987-21.236.088 0 2.222-.013 2.222-.013v-14.642h-141.875v14.642s2.134.014 2.222.013c11.595.143 20.987 9.608 20.987 21.236v90.118c0 11.717-9.533 21.25-21.25 21.25h-1.959v15.236h141.876v-15.236z" fill="#e8cebc"/><path d="m233.997 162.257s-2.134.006-2.222.007c-11.595-.143-20.987-9.608-20.987-21.237v-90.117c0-11.717 9.533-21.25 21.25-21.25h1.959v-29.66h-141.875v29.66h1.959c11.717 0 21.25 9.533 21.25 21.25v90.118c0 11.628-9.391 21.094-20.987 21.237-.088 0-2.222-.007-2.222-.007v15.344h141.876v-15.345z" fill="#efe2dd"/></g><g><path d="m232.038 354.847h1.959v-14.75h-69.724v171.903h68.122l-.357-30.534c-11.717 0-21.25-9.533-21.25-21.25v-84.12c0-11.717 9.533-21.249 21.25-21.249z" fill="#e8cebc"/><path d="m231.775 192.257c.088 0 2.222-.013 2.222-.013v-14.642h-69.724v162.495h69.724v-15.236h-1.959c-11.717 0-21.25-9.533-21.25-21.25v-90.118c0-11.628 9.392-21.093 20.987-21.236z" fill="#e1bda6"/><path d="m232.038 29.66h1.959v-29.66h-69.724v177.602h69.724v-15.344s-2.134.006-2.222.007c-11.595-.143-20.987-9.608-20.987-21.237v-90.118c0-11.717 9.533-21.25 21.25-21.25z" fill="#e8cebc"/></g><g><path d="m26.514 177.602c-2.886 2.2 65.604 7.266 65.604 7.266l.019-25.389c0-37.011-30.111-67.121-67.121-67.121h-24.988v31.928c0 21.746 10.403 41.042 26.486 53.316z" fill="#97de3d"/><path d="m26.514 177.602c-16.099 12.272-26.514 31.697-26.514 53.456v31.928h24.989c37.01 0 67.121-30.111 67.121-67.121l.019-18.263s-65.597.008-65.615 0z" fill="#59c36a"/></g></g><g><path d="m488.334 246.299c-35.053 0-63.541 28.518-63.541 63.571v30.24h23.636c35.053 0 63.572-28.518 63.572-63.572v-30.24h-23.667z" fill="#00a66c"/><g><path d="m282.924 354.847h1.959c11.717 0 21.25 9.533 21.25 21.25v84.12c0 11.717-9.533 21.25-21.25 21.25l-.156 30.533h138.472l-.357-30.534c-11.717 0-21.25-9.533-21.25-21.25v-84.12c0-11.717 9.533-21.25 21.25-21.25h1.951v-14.75h-141.869z" fill="#efe2dd"/><path d="m422.841 324.861c-11.717 0-21.25-9.533-21.25-21.25v-90.118c0-11.628 9.391-21.093 20.987-21.236.088 0 2.222-.013 2.222-.013v-14.642h-141.876v14.642s2.134.014 2.222.013c11.595.143 20.987 9.608 20.987 21.236v90.118c0 11.717-9.533 21.25-21.25 21.25h-1.959v15.236h141.868v-15.236z" fill="#e8cebc"/><path d="m424.8 162.257s-2.134.006-2.222.007c-11.595-.143-20.987-9.608-20.987-21.237v-90.117c0-11.717 9.533-21.25 21.25-21.25h1.959v-29.66h-141.876v29.66h1.959c11.717 0 21.25 9.533 21.25 21.25v90.118c0 11.628-9.391 21.094-20.987 21.237-.088 0-2.222-.007-2.222-.007v15.344h141.876z" fill="#efe2dd"/></g><g><path d="m422.841 354.847h1.951v-14.75h-69.717v171.903h68.122l-.357-30.534c-11.717 0-21.25-9.533-21.25-21.25v-84.12c.001-11.717 9.534-21.249 21.251-21.249z" fill="#e8cebc"/><path d="m422.578 192.257c.088 0 2.222-.013 2.222-.013v-14.642h-69.724v162.495h69.717v-15.236h-1.951c-11.717 0-21.25-9.533-21.25-21.25v-90.118c-.001-11.628 9.391-21.093 20.986-21.236z" fill="#e1bda6"/><path d="m422.841 29.66h1.959v-29.66h-69.724v177.602h69.724v-15.344s-2.134.006-2.222.007c-11.595-.143-20.987-9.608-20.987-21.237v-90.118c0-11.717 9.533-21.25 21.25-21.25z" fill="#e8cebc"/></g></g></g></svg>