<svg id="Capa_1" enable-background="new 0 0 512 512" height="512" viewBox="0 0 512 512" width="512" xmlns="http://www.w3.org/2000/svg"><g><g><g><path d="m180.001 292.229h40.209v219.771h-40.209z" fill="#a14f42"/></g></g><path d="m311.596 292v27.292c0 10.669-12.452 21.141-25.139 21.141h-31.535v-48.205h-37.461v219.772h37.461v-141.586h31.535c29.362 0 55.119-23.888 55.119-51.121v-27.293z" fill="#873f30"/><g><path d="m222.304 0h-29.137c-34.407 0-62.753 26.447-65.776 60.081-32.264.794-58.263 27.287-58.263 59.739v2.971c-31.896 1.146-57.814 27.14-58.226 58.929-.209 16.116 5.907 31.304 17.222 42.768 11.317 11.464 26.421 17.779 42.529 17.779h133.156l18.495-32.796z" fill="#b5d2d6"/><path d="m307.954 60.062h-5.912c-3.033-33.624-31.375-60.062-65.775-60.062h-19.247v212.076l150.69-74.335v-17.922c0-32.95-26.806-59.757-59.756-59.757z" fill="#a0b3be"/></g><g><path d="m331.499 123.432h-66.49c-32.95 0-59.757 26.807-59.757 59.757v2.971c-31.896 1.145-57.814 27.14-58.226 58.929-.209 16.116 5.907 31.304 17.222 42.767 11.317 11.464 26.421 17.779 42.529 17.779h119.833z" fill="#cbdfe2"/></g><g><path d="m442.872 186.161v-2.971c0-32.95-26.807-59.757-59.757-59.757h-56.9v182.203h115.132c16.108 0 31.212-6.314 42.529-17.779 11.315-11.463 17.432-26.651 17.222-42.767-.412-31.79-26.33-57.784-58.226-58.929z" fill="#b5d2d6"/></g></g></svg>