<svg id="Capa_1" enable-background="new 0 0 512 512" height="512" viewBox="0 0 512 512" width="512" xmlns="http://www.w3.org/2000/svg"><g><path d="m218.539 305.959v60.735h-53.042c-5.506 0-9.985-4.479-9.985-9.985v-36.997h-29.956v36.997c0 22.024 17.917 39.941 39.941 39.941h53.042v115.35h43.875v-206.041z" fill="#a14f42"/><path d="m356.491 319.711v36.997c0 5.506-4.48 9.985-9.985 9.985h-53.045v-60.735h-37.461v206.042h37.461v-115.35h53.045c22.023 0 39.941-17.917 39.941-39.941v-36.997h-29.956z" fill="#873f30"/><g><path d="m259.772.05c-1.254-.032-2.511-.05-3.771-.05-38.488 0-74.692 14.967-101.943 42.145-23.64 23.576-38.111 53.911-41.601 86.659-54.367 3.122-97.64 48.34-97.64 103.474 0 27.664 10.818 53.509 30.461 72.774 19.487 19.112 45.478 29.636 73.186 29.636h141.308z" fill="#fdbf00"/></g><g><path d="m399.546 128.805c-3.49-32.748-17.961-63.084-41.601-86.659-27.252-27.179-63.455-42.146-101.944-42.146h-.001v334.689h137.536c27.708 0 53.699-10.525 73.186-29.636 19.643-19.265 30.461-45.109 30.461-72.774 0-55.134-43.271-100.352-97.637-103.474z" fill="#f7a512"/></g></g></svg>