<svg id="Capa_1" enable-background="new 0 0 512 512" height="512" viewBox="0 0 512 512" width="512" xmlns="http://www.w3.org/2000/svg"><g><g><path d="m315.24 430.804h-118.48c-44.933 0-81.488-36.555-81.488-81.488v-267.828c0-44.933 36.555-81.488 81.488-81.488h118.48c44.933 0 81.488 36.555 81.488 81.488v267.828c0 44.933-36.555 81.488-81.488 81.488z" fill="#19a995"/></g><g><path d="m315.24 0h-59.24v430.804h59.24c44.933 0 81.488-36.555 81.488-81.488v-267.828c0-44.933-36.555-81.488-81.488-81.488z" fill="#0d7579"/></g><path d="m258.193 512v-306.506h-17.218v41.395c-17.491-3.45-30.725-18.9-30.725-37.388h-30.049c0 35.088 26.653 64.06 60.775 67.755v64.909c-17.491-3.45-30.725-18.9-30.725-37.388h-30.049c0 35.088 26.653 64.06 60.775 67.755v139.468z" fill="#d9ad90"/><g><path d="m271.025 342.164v-64.909c34.122-3.696 60.775-32.667 60.775-67.755h-30.05c0 18.488-13.234 33.938-30.725 37.388v-41.395h-15.025v306.507h15.025v-139.469c34.122-3.696 60.775-32.667 60.775-67.755h-30.05c0 18.488-13.234 33.938-30.725 37.388z" fill="#cc9b7c"/></g></g></svg>