<svg id="Capa_1" enable-background="new 0 0 512 512" height="512" viewBox="0 0 512 512" width="512" xmlns="http://www.w3.org/2000/svg"><g><g><path d="m303.196 302.314-55.484 55.816v-74.148h-29.899v73.999l-44.071-45.475-21.144 21.145 65.215 67.292v111.057h29.899v-111.46l76.689-77.147z" fill="#d9ad90"/></g><g><path d="m303.196 302.314-55.484 55.816v-74.148h-14.949v228.018h14.949v-111.46l76.689-77.147z" fill="#bf825b"/></g><path d="m232.763 305.77c-84.436 0-152.885-68.449-152.885-152.885s68.448-152.885 152.885-152.885 84.436 305.77 0 305.77z" fill="#19a995"/><g><path d="m232.763 0v305.77c84.436 0 152.885-68.449 152.885-152.885s-68.449-152.885-152.885-152.885z" fill="#0d7579"/></g><circle cx="384.878" cy="246.447" fill="#97de3d" r="108.991"/><g><path d="m384.878 137.456v217.981c60.194 0 108.991-48.797 108.991-108.991 0-60.193-48.797-108.99-108.991-108.99z" fill="#59c36a"/></g><path d="m107.448 353.74c-49.328 0-89.317-39.988-89.317-89.317s39.988-89.317 89.317-89.317 49.328 178.634 0 178.634z" fill="#0d7579"/><g><path d="m107.448 175.107v178.633c49.328 0 89.317-39.988 89.317-89.317-.001-49.327-39.989-89.316-89.317-89.316z" fill="#08585a"/></g><g><path d="m131.973 268.697-21.471 20.808 54.919 57.377 21.144-21.145z" fill="#d9ad90"/></g></g></svg>