<svg id="Capa_1" enable-background="new 0 0 512 512" height="512" viewBox="0 0 512 512" width="512" xmlns="http://www.w3.org/2000/svg"><g><path d="m260.247 512v-161.41h-19.279v58.215l-36.411-25.886c-10.824-7.695-17.285-20.218-17.285-33.5v-45.06h-30.053v45.06c0 22.992 11.187 44.671 29.925 57.993l53.825 38.266v66.322z" fill="#b5d2d6"/><g><path d="m324.728 304.358v45.06c0 13.281-6.462 25.805-17.286 33.5l-36.42 25.893v-58.221h-15.022v161.41h15.022v-66.315l53.834-38.273c18.738-13.322 29.926-35.001 29.926-57.994v-45.06z" fill="#a0b3be"/></g><g><path d="m260.247.086c-1.413-.053-2.828-.086-4.247-.086-27.341 0-53.76 9.855-74.393 27.75-17.386 15.08-29.729 35.013-35.497 57.021-16.64 2.763-31.956 10.665-44.023 22.885-14.995 15.185-23.253 35.301-23.253 56.645 0 8.25 1.279 16.466 3.75 24.3-21.653 14.869-35.033 39.654-35.033 66.499 0 44.468 36.177 80.645 80.645 80.645 14.023 0 27.688-3.65 39.723-10.47 8.722 10.697 19.362 19.787 31.351 26.711 17.177 9.92 36.795 15.164 56.73 15.164 1.418 0 2.833-.034 4.247-.087z" fill="#feb4bf"/></g><g><path d="m429.417 188.602c2.471-7.835 3.75-16.05 3.75-24.3 0-21.344-8.258-41.46-23.253-56.645-12.068-12.22-27.383-20.122-44.023-22.885-5.768-22.009-18.111-41.941-35.497-57.021-20.634-17.896-47.053-27.751-74.394-27.751v367.15c19.936 0 39.553-5.244 56.73-15.164 11.989-6.924 22.629-16.014 31.351-26.711 12.035 6.82 25.7 10.47 39.723 10.47 44.468 0 80.645-36.177 80.645-80.645 0-26.845-13.38-51.63-35.032-66.498z" fill="#fd8f9f"/></g></g></svg>