<svg id="Capa_1" enable-background="new 0 0 512 512" height="512" viewBox="0 0 512 512" width="512" xmlns="http://www.w3.org/2000/svg"><g><g><path d="m258.967 0h-40.908c-57.726 0-111.998 22.48-152.817 63.299s-63.299 95.091-63.299 152.817 22.48 111.998 63.299 152.817 95.091 63.299 152.817 63.299h40.908z" fill="#97de3d"/></g><g><path d="m446.758 63.299c-40.819-40.819-95.091-63.299-152.817-63.299h-37.941v432.232h37.941c57.727 0 111.998-22.48 152.817-63.299s63.299-95.091 63.299-152.817-22.48-111.998-63.299-152.817z" fill="#59c36a"/></g><g><path d="m256.986 512v-293.317h-15.883v124.384l-44.309-44.309v-75.664h-30.05v45.615l-32.861-32.861-21.248 21.248 33.138 33.137h-46.168v30.05h76.217l65.281 65.281v126.436z" fill="#cc9b7c"/><g><path d="m366.483 290.233 33.137-33.137-21.247-21.248-33.117 33.117v-45.871h-30.05v75.92l-44.053 44.053v-124.384h-15.153v293.317h15.153v-126.436l65.28-65.281h75.962v-30.05z" fill="#bf825b"/></g></g></g></svg>