<svg id="Capa_1" enable-background="new 0 0 512 512" height="512" viewBox="0 0 512 512" width="512" xmlns="http://www.w3.org/2000/svg"><g><g><g><path d="m256 432.527c-79.952 0-144.997-65.046-144.997-144.997v-142.533c-.001-79.951 65.045-144.997 144.997-144.997 79.953 0 144.998 65.046 144.998 144.997v142.532c0 79.952-65.046 144.998-144.998 144.998z" fill="#fee46f"/></g></g><g><path d="m256 0v432.527c79.953 0 144.998-65.046 144.998-144.997v-142.533c0-79.951-65.045-144.997-144.998-144.997z" fill="#fed330"/></g><path d="m310.744 293.948-39.737 16.094v-27.683l51.017-20.663-11.28-27.851-39.737 16.094v-28.385l41.926-20.372-13.133-27.027-43.8 21.197-43.883-21.22-13.039 27.073 41.88 20.17v28.446l-39.773-15.991-11.209 27.881 50.982 20.497v27.716l-39.773-15.991-11.209 27.881 50.982 20.497v169.689h30.049v-169.538l51.017-20.663z" fill="#d9ad90"/><g><path d="m271.007 310.042v-27.683l51.017-20.663-11.28-27.851-39.737 16.094v-28.385l41.926-20.372-13.133-27.027-43.8 21.197v316.648h15.007v-169.538l51.017-20.663-11.28-27.851z" fill="#cc9b7c"/></g></g></svg>