<svg id="Capa_1" enable-background="new 0 0 512 512" height="512" viewBox="0 0 512 512" width="512" xmlns="http://www.w3.org/2000/svg"><g><path d="m356.288 342.877-13.088-26.988-72.173 34.999v-60.691l47.805-24.132-13.517-26.777-34.288 17.309v-78.386h-29.995v78.917l-33.594-16.959-13.517 26.777 47.111 23.782v60.555l-72.113-35.365-13.207 26.931 85.32 41.842v127.309h29.995v-127.776z" fill="#b5d2d6"/><g><path d="m343.2 315.889-72.173 34.999v-60.691l47.805-24.132-13.517-26.777-34.288 17.309v-78.386h-15.027v333.789h15.027v-127.776l85.261-41.347z" fill="#a0b3be"/></g><g><path d="m256 208.596c-57.602 0-104.298-46.696-104.298-104.298s46.696-104.298 104.298-104.298 57.602 208.596 0 208.596z" fill="#fc445f"/><g><path d="m256 0v208.596c57.602 0 104.298-46.696 104.298-104.298s-46.696-104.298-104.298-104.298z" fill="#e1105a"/></g></g><g><g><path d="m132.477 303.335c-48.597 0-87.993-39.396-87.993-87.993s39.396-87.993 87.993-87.993 48.598 175.986 0 175.986z" fill="#fd8f9f"/><g><path d="m132.477 127.348v175.987c48.597 0 87.993-39.396 87.993-87.993.001-48.598-39.395-87.994-87.993-87.994z" fill="#fd697f"/></g></g><g><path d="m379.523 303.335c-48.597 0-87.993-39.396-87.993-87.993s39.396-87.993 87.993-87.993 48.597 175.986 0 175.986z" fill="#fd8f9f"/><g><path d="m379.523 127.348v175.987c48.597 0 87.993-39.396 87.993-87.993 0-48.598-39.396-87.994-87.993-87.994z" fill="#fd697f"/></g></g></g><g><g><path d="m100.11 390.789c-45.386 0-82.179-36.793-82.179-82.179s36.793-82.179 82.179-82.179 45.387 164.358 0 164.358z" fill="#feb4bf"/><g><path d="m100.11 226.431v164.358c45.386 0 82.179-36.793 82.179-82.179.001-45.387-36.792-82.179-82.179-82.179z" fill="#fd8f9f"/></g></g><g><path d="m411.89 390.789c-45.386 0-82.179-36.793-82.179-82.179s36.793-82.179 82.179-82.179 45.386 164.358 0 164.358z" fill="#feb4bf"/><g><path d="m411.89 226.431v164.358c45.386 0 82.179-36.793 82.179-82.179 0-45.387-36.793-82.179-82.179-82.179z" fill="#fd8f9f"/></g></g></g></g></svg>