<svg id="Capa_1" enable-background="new 0 0 512 512" height="512" viewBox="0 0 512 512" width="512" xmlns="http://www.w3.org/2000/svg"><g><path d="m284.911 270.916-57.849.003-20.265 241.081h98.409z" fill="#a14f42"/><g><path d="m284.911 270.916-28.911.002v241.082h49.206z" fill="#873f30"/></g><g><path d="m256 0s.001 0 0 0c-16.758 0-31.879 9.302-39.459 24.273-6.838 13.508-12.246 27.111-16.167 40.644-12.342-6.798-25.785-12.592-40.172-17.308-15.947-5.229-33.215-1.112-45.065 10.738s-15.965 29.118-10.737 45.064c4.716 14.387 10.511 27.83 17.309 40.173-13.534 3.92-27.137 9.328-40.644 16.166-14.972 7.579-24.273 22.699-24.273 39.458s9.301 31.879 24.273 39.458c13.507 6.838 27.111 12.246 40.645 16.166-6.797 12.342-12.593 25.785-17.309 40.173-5.173 15.781-1.434 32.273 10.002 44.113 8.581 8.885 20.289 13.684 32.398 13.684 4.291 0 8.634-.603 12.904-1.841 26.933-7.802 75.226-45.207 96.295-62.228 5.411 4.358 20.142-140.68 20.142-140.68s-12.972-148.053-20.142-148.053z" fill="#19a995"/></g><g><path d="m430.936 159.75c-13.507-6.838-27.111-12.245-40.645-16.166 6.798-12.342 12.592-25.784 17.309-40.173 5.227-15.946 1.112-33.214-10.739-45.065-11.85-11.849-29.118-15.962-45.064-10.737-14.388 4.716-27.83 10.51-40.173 17.308-3.921-13.533-9.328-27.136-16.167-40.643-7.578-14.972-22.697-24.274-39.457-24.274-.001 0 0 0 0 0v288.734c22.742 18.316 72.596 56.744 97.075 62.431 16.903 3.93 34.382-1.259 45.617-13.533 10.549-11.525 13.879-27.46 8.908-42.626-4.716-14.387-10.511-27.83-17.309-40.173 13.534-3.921 27.138-9.328 40.644-16.166 14.972-7.579 24.273-22.699 24.273-39.458s-9.3-31.879-24.272-39.459z" fill="#0d7579"/></g></g></svg>