<svg id="Capa_1" enable-background="new 0 0 512 512" height="512" viewBox="0 0 512 512" width="512" xmlns="http://www.w3.org/2000/svg"><g><path d="m390.259 308.857v17.016c0 12.185-9.913 22.098-22.098 22.098h-96.76v-210.544h-29.96v170.765h-97.621c-12.185 0-22.098-9.914-22.098-22.099v-17.015h-29.96v17.015c0 28.705 23.353 52.059 52.059 52.059h97.621v173.848h29.96v-134.07h96.76c28.705 0 52.058-23.353 52.058-52.058v-17.016h-29.961z" fill="#b95d4f"/><g><path d="m390.259 308.857v17.016c0 12.185-9.913 22.098-22.098 22.098h-96.76v-210.544h-15.401v374.573h15.401v-134.07h96.76c28.705 0 52.058-23.353 52.058-52.058v-17.016h-29.96z" fill="#a14f42"/></g><g><path d="m256 0h-92.355c-41.724 0-75.67 33.945-75.67 75.67s33.946 75.67 75.67 75.67h92.355z" fill="#19a995"/></g><g><path d="m348.355 0h-92.355v151.341h92.355c41.724 0 75.67-33.945 75.67-75.67 0-41.726-33.946-75.671-75.67-75.671z" fill="#0d7579"/></g><g><g><path d="m106.563 180.6h-54.149c-28.901 0-52.414 23.513-52.414 52.414 0 28.902 23.513 52.415 52.414 52.415h54.148v-104.829z" fill="#97de3d"/></g><g><path d="m160.734 180.6h-54.611v104.829h54.611c28.902 0 52.415-23.513 52.415-52.415 0-28.901-23.514-52.414-52.415-52.414z" fill="#59c36a"/></g></g><g><g><path d="m405.414 218.251h-54.148c-28.902 0-52.414 23.513-52.414 52.414 0 28.902 23.513 52.415 52.414 52.415h54.148z" fill="#97de3d"/></g><g><path d="m459.585 218.251h-54.611v104.829h54.611c28.902 0 52.415-23.513 52.415-52.415 0-28.901-23.513-52.414-52.415-52.414z" fill="#59c36a"/></g></g></g></svg>