<svg id="Capa_1" enable-background="new 0 0 512 512" height="512" viewBox="0 0 512 512" width="512" xmlns="http://www.w3.org/2000/svg"><g><g><path d="m256 403.886-91.959-88.348h-57.879l106.84 103.685v92.731h42.998l18.342-29.899z" fill="#a14f42"/><g><path d="m364.118 299.379-108.118 104.507v108.068h42.998v-92.731l121.176-118.021z" fill="#873f30"/></g></g><path d="m478.973 330.32h-445.946c-18.24 0-33.027-14.787-33.027-33.027 0-18.241 14.787-33.027 33.027-33.027h445.945c18.241 0 33.027 14.787 33.027 33.027.001 18.24-14.786 33.027-33.026 33.027z" fill="#97de3d"/><g><g><g><path d="m308.962 66.1h-105.924c-18.241 0-33.027-14.787-33.027-33.027 0-18.241 14.787-33.027 33.027-33.027h105.924c18.241 0 33.027 14.787 33.027 33.027 0 18.241-14.787 33.027-33.027 33.027z" fill="#97de3d"/></g></g></g><path d="m478.973 264.265h-221.843v66.055h221.842c18.24 0 33.027-14.787 33.027-33.027.001-18.241-14.786-33.028-33.026-33.028z" fill="#59c36a"/><g><g><g><path d="m308.962.046h-51.832v66.054h51.832c18.241 0 33.027-14.787 33.027-33.027 0-18.241-14.787-33.027-33.027-33.027z" fill="#59c36a"/></g></g></g><path d="m448.971 264.265h-385.942c-18.241 0-33.027-14.787-33.027-33.027 0-18.241 14.787-33.027 33.027-33.027h385.941c18.241 0 33.027 14.787 33.027 33.027.001 18.24-14.786 33.027-33.026 33.027z" fill="#59c36a"/><path d="m358.965 132.155h-205.93c-18.241 0-33.027-14.787-33.027-33.027 0-18.241 14.787-33.027 33.027-33.027h205.93c18.241 0 33.027 14.787 33.027 33.027 0 18.24-14.786 33.027-33.027 33.027z" fill="#59c36a"/><g fill="#00a66c"><path d="m448.971 198.21h-191.841v66.055h191.84c18.24 0 33.027-14.787 33.027-33.027.001-18.241-14.786-33.028-33.026-33.028z"/><path d="m358.965 66.1h-101.835v66.055h101.835c18.24 0 33.027-14.787 33.027-33.027 0-18.241-14.786-33.028-33.027-33.028z"/><path d="m408.968 198.21h-305.936c-18.241 0-33.027-14.787-33.027-33.027 0-18.241 14.787-33.027 33.027-33.027h305.936c18.241 0 33.027 14.787 33.027 33.027.001 18.24-14.786 33.027-33.027 33.027z"/></g><path d="m408.968 132.155h-151.838v66.055h151.838c18.241 0 33.027-14.787 33.027-33.027.001-18.241-14.786-33.028-33.027-33.028z" fill="#0d7669"/></g></svg>