<svg id="Capa_1" enable-background="new 0 0 512 512" height="512" viewBox="0 0 512 512" width="512" xmlns="http://www.w3.org/2000/svg"><g><g><g><path d="m256.332 453.269-150.862-150.801c-25.588-25.588-25.588-67.223 0-92.811 5.629-5.629 12.17-10.12 19.267-13.34l-19.267-19.268c-12.396-12.395-19.222-28.875-19.222-46.406 0-17.53 6.826-34.01 19.222-46.406 22.345-22.345 56.926-25.176 82.374-8.497v-7.584c0-37.581 30.575-68.156 68.156-68.156s68.156 30.575 68.156 68.156v8.172c10.593-6.969 22.994-10.708 35.968-10.708 17.53 0 34.01 6.826 46.406 19.222 25.588 25.588 25.588 67.223 0 92.811l-19.267 19.267c7.097 3.22 13.638 7.711 19.267 13.341 12.396 12.395 19.222 28.875 19.222 46.406 0 17.53-6.826 34.01-19.222 46.406z" fill="#19a995"/></g></g><g><path d="m406.53 210.261c-5.629-5.629-12.17-10.121-19.267-13.341l19.267-19.267c25.588-25.588 25.588-67.223 0-92.811-12.396-12.396-28.876-19.222-46.406-19.222-12.974 0-25.375 3.739-35.968 10.708v-8.172c0-37.581-30.575-68.156-68.156-68.156v452.937l.332.332 150.198-150.197c12.396-12.396 19.222-28.876 19.222-46.406s-6.826-34.01-19.222-46.405z" fill="#0d7579"/></g><path d="m240.991 220.246h15.881v291.754h-15.881z" fill="#d9ad90"/><g><path d="m303.62 247.237-32.611 43.556v-70.547h-15.009v291.754h15.009v-171.126l56.639-75.646z" fill="#cc9b7c"/></g></g></svg>