<svg id="Capa_1" enable-background="new 0 0 512 512" height="512" viewBox="0 0 512 512" width="512" xmlns="http://www.w3.org/2000/svg"><g><g><g><g><path d="m256 426.216c-71.256 0-129.227-57.971-129.227-129.228v-29.795c0-42.795 12.199-84.463 35.279-120.5l93.948-146.693 93.948 146.693c23.08 36.037 35.279 77.705 35.279 120.5v29.795c0 71.257-57.971 129.228-129.227 129.228z" fill="#fc445f"/></g></g></g><g><path d="m349.948 146.693-93.948-146.693v426.216c71.256 0 129.227-57.971 129.227-129.228v-29.795c0-42.795-12.199-84.463-35.279-120.5z" fill="#e1105a"/></g><path d="m325.968 303.283-21.141-21.141-33.878 33.878v-59.152h-29.898v255.132h29.898v-153.698z" fill="#a14f42"/><g><path d="m304.827 282.142-33.878 33.878v-59.152h-14.949v255.132h14.949v-153.698l55.019-55.019z" fill="#873f30"/></g></g></svg>