<svg id="Capa_1" enable-background="new 0 0 512 512" height="512" viewBox="0 0 512 512" width="512" xmlns="http://www.w3.org/2000/svg"><g><g><path d="m213.002 387.833v124.167h42.998l18.342-44.263-12.665-79.904z" fill="#a14f42"/><g><path d="m256 387.833h42.999v124.167h-42.999z" fill="#873f30"/></g></g><g><path d="m257.089 285.942-107.105 11.949-61.717 79.977c0 36.454 29.658 66.112 66.112 66.112 20.404 0 38.674-9.295 50.811-23.868 12.137 14.573 30.407 23.868 50.81 23.868.365 0 .725-.025 1.089-.031z" fill="#00a66c"/></g><g><path d="m365.045 301.542-85.228-18.135-23.817 2.656v157.917c20.404 0 38.673-9.295 50.811-23.868 12.137 14.573 30.407 23.868 50.811 23.868 36.454 0 66.112-29.658 66.112-66.112z" fill="#0d7669"/></g><path d="m257.543 158.995-76.457 18.46-70.608 90.695c0 32.381 26.343 58.724 58.724 58.724 17.176 0 32.651-7.413 43.399-19.206 10.748 11.793 26.224 19.206 43.399 19.206.518 0 1.029-.028 1.543-.042z" fill="#59c36a"/><g><path d="m333.942 181.106-66.398-24.525-11.544 2.787v167.506c17.175 0 32.651-7.413 43.399-19.206 10.748 11.793 26.223 19.206 43.399 19.206 32.38 0 58.723-26.343 58.723-58.724z" fill="#00a66c"/></g><path d="m256 0-123.016 153.87c0 28.253 22.985 51.238 51.238 51.238 13.965 0 26.637-5.623 35.889-14.715 9.251 9.093 21.924 14.715 35.889 14.715.518 0 1.029-.023 1.543-.039z" fill="#97de3d"/><g><path d="m256 0v205.108c13.966 0 26.638-5.623 35.889-14.715 9.251 9.093 21.923 14.715 35.888 14.715 28.253 0 51.238-22.985 51.238-51.238z" fill="#59c36a"/></g></g></svg>