<svg id="Capa_1" enable-background="new 0 0 512 512" height="512" viewBox="0 0 512 512" width="512" xmlns="http://www.w3.org/2000/svg"><g><g><path d="m451.12 188.134c0-53.578-40.332-97.914-92.229-104.246-4.346-21.28-15.212-40.728-31.346-55.749-19.492-18.145-44.901-28.139-71.545-28.139s-52.053 9.994-71.545 28.14c-16.134 15.021-27 34.469-31.346 55.749-51.897 6.331-92.229 50.667-92.229 104.245 0 24.718 8.749 48.519 24.397 67.283-15.648 18.763-24.397 42.565-24.397 67.283 0 57.908 47.112 105.02 105.02 105.02 23.934 0 53.152-9.579 71.053-23.293l37.427 1.699c19.102 14.917 49.786 21.594 71.721 21.594 57.908 0 105.02-47.112 105.02-105.02 0-24.719-8.749-48.52-24.397-67.283 15.647-18.764 24.396-42.565 24.396-67.283z" fill="#97de3d"/></g><g><path d="m451.12 188.134c0-53.578-40.332-97.914-92.229-104.246-4.346-21.28-15.212-40.728-31.346-55.749-19.492-18.145-44.901-28.139-71.545-28.139v405.292l18.38.834c19.102 14.917 49.786 21.594 71.721 21.594 57.908 0 105.02-47.112 105.02-105.02 0-24.719-8.749-48.52-24.397-67.283 15.647-18.764 24.396-42.565 24.396-67.283z" fill="#59c36a"/></g><g><path d="m226.32 323.133-15.876 188.867h91.115l-15.899-188.867z" fill="#cbdfe2"/><g><path d="m256 323.133v188.867h45.559l-15.899-188.867z" fill="#b5d2d6"/></g><g><path d="m256 342.725c-44.418 0-80.555-36.137-80.555-80.555h29.959c0 27.899 22.697 50.596 50.596 50.596s50.596-22.697 50.596-50.596h29.959c0 44.419-36.137 80.555-80.555 80.555z" fill="#59c36a"/></g><g><path d="m306.596 262.171c0 27.899-22.697 50.596-50.596 50.596v29.958c44.418 0 80.555-36.136 80.555-80.555h-29.959z" fill="#00a66c"/></g></g></g></svg>