<svg id="Capa_1" enable-background="new 0 0 514.29 514.29" height="512" viewBox="0 0 514.29 514.29" width="512" xmlns="http://www.w3.org/2000/svg"><g><g><g><path d="m445.233 354.354h-376.175c-38.079 0-69.058-30.98-69.058-69.058 0-31.42 21.09-58.006 49.858-66.344-1.071-4.86-1.619-9.841-1.619-14.855 0-38.078 30.979-69.058 69.058-69.058h1.262v-6.645c0-34.532 25.476-63.225 58.621-68.27 4.894-33.317 33.669-58.979 68.324-58.979h23.282c34.655 0 63.431 25.662 68.325 58.979 33.144 5.045 58.621 33.738 58.621 68.27v6.645h1.262c38.078 0 69.058 30.98 69.058 69.058 0 5.014-.548 9.996-1.619 14.855 28.768 8.338 49.858 34.923 49.858 66.344-.001 38.078-30.98 69.058-69.058 69.058z" fill="#97de3d"/></g></g><g><path d="m464.432 218.952c1.071-4.86 1.619-9.841 1.619-14.855 0-38.078-30.98-69.058-69.058-69.058h-1.262v-6.645c0-34.532-25.477-63.225-58.621-68.27-4.894-33.317-33.67-58.979-68.325-58.979h-11.641v353.208h188.088c38.078 0 69.057-30.98 69.057-69.058.001-31.419-21.088-58.005-49.857-66.343z" fill="#59c36a"/></g><path d="m332.809 223.187h-29.995c0 18.455-13.21 33.877-30.67 37.321v-41.322h-29.995v41.322c-17.46-3.444-30.67-18.866-30.67-37.321h-29.995c0 35.025 26.605 63.945 60.666 67.634v222.324h29.995v-222.324c34.059-3.689 60.664-32.609 60.664-67.634z" fill="#cc9b7c"/><g><path d="m302.813 223.187c0 18.455-13.21 33.877-30.67 37.321v-41.322h-14.998v293.959h14.998v-222.324c34.061-3.689 60.666-32.609 60.666-67.634z" fill="#bf825b"/></g></g></svg>