<svg id="Capa_1" enable-background="new 0 0 512 512" height="512" viewBox="0 0 512 512" width="512" xmlns="http://www.w3.org/2000/svg"><g><g><path d="m213.001 387.833v124.167h42.999l18.342-44.263-12.665-79.904z" fill="#b5d2d6"/><g><path d="m256 387.833h42.999v124.167h-42.999z" fill="#a0b3be"/></g></g><g><g><path d="m258.256 293.218-130.57.536-38.287 39.611-.267.283c-16.976 18.469-21.257 44.212-11.171 67.182s31.936 37.239 57.023 37.239h123.272z" fill="#363d7e"/></g></g><g><path d="m423.063 333.861-35.248-41.175-131.815.541v144.842h121.016c25.087 0 46.937-14.27 57.023-37.239 10.047-22.883 5.838-48.515-10.976-66.969z" fill="#2c3065"/></g><path d="m258.256 193.898-94.928-.793-37.197 41.449-.366.423c-15.649 18.764-18.935 44.165-8.576 66.293 10.358 22.128 31.971 35.874 56.403 35.874h84.664z" fill="#404aa4"/><g><path d="m386.235 234.978-.27-.324-37.247-40-92.718-.775v143.265h82.408c24.432 0 46.045-13.746 56.403-35.874 10.36-22.127 7.073-47.528-8.576-66.292z" fill="#363d7e"/></g><path d="m258.256 98.963-51.364-1.304-37.61 38.116-.317.331c-17.135 18.43-21.535 44.211-11.483 67.281s31.929 37.401 57.094 37.401h43.679v-141.825z" fill="#363d7e"/><path d="m354.517 203.387c10.052-23.07 5.652-48.851-11.483-67.281l-36.026-35.905-51.008-1.295v141.883h41.423c25.165-.001 47.043-14.332 57.094-37.402z" fill="#2c3065"/><g><path d="m258.256 2.29-2.256-2.29-44.361 45.023c-17.943 18.21-22.958 44.173-13.087 67.755 9.871 23.583 31.883 38.233 57.448 38.233.755 0 1.507-.015 2.256-.04z" fill="#404aa4"/></g><path d="m313.448 112.778c9.87-23.582 4.856-49.545-13.087-67.754l-44.361-45.024v151.011c25.565 0 47.578-14.65 57.448-38.233z" fill="#363d7e"/></g></svg>