<svg id="Capa_1" enable-background="new 0 0 512 512" height="512" viewBox="0 0 512 512" width="512" xmlns="http://www.w3.org/2000/svg"><g><g><g><path d="m256 457.927c-8.565 0-17.129-1.784-25.108-5.352l-10.329-4.619c-3.165-1.415-6.519-2.293-9.969-2.612l-11.907-1.1c-16.859-1.557-32.492-10.116-42.89-23.48l-6.709-8.625c-2.431-3.125-5.39-5.734-8.793-7.753l-10.475-6.218c-13.839-8.213-23.776-21.29-27.98-36.823l-2.947-10.889c-1.146-4.233-3.121-8.111-5.871-11.529l-7.518-9.344c-9.7-12.056-14.477-27.197-13.452-42.634l.765-11.524c.3-4.52-.398-9.145-2.02-13.374l-4.244-11.072c-5.442-14.197-5.442-29.835.001-44.034l4.243-11.068c1.622-4.23 2.32-8.855 2.02-13.374l-.765-11.526c-1.025-15.439 3.752-30.581 13.453-42.634l7.516-9.343c2.749-3.416 4.724-7.296 5.871-11.529l2.948-10.89c4.204-15.533 14.14-28.611 27.98-36.824l10.474-6.216c3.404-2.02 6.363-4.629 8.793-7.754l6.71-8.625c10.397-13.364 26.03-21.923 42.891-23.48l11.905-1.1c3.45-.318 6.805-1.197 9.971-2.613l10.328-4.618c15.957-7.135 34.26-7.135 50.215 0l10.33 4.619c3.164 1.415 6.518 2.293 9.969 2.612l11.908 1.101c16.859 1.557 32.492 10.116 42.889 23.48l6.709 8.625c2.43 3.124 5.389 5.733 8.795 7.754l10.472 6.215c13.84 8.214 23.777 21.291 27.981 36.825l2.947 10.889c1.147 4.233 3.122 8.112 5.871 11.529l7.518 9.343c9.7 12.056 14.477 27.197 13.452 42.634l-.765 11.524c-.3 4.52.398 9.145 2.02 13.374l4.244 11.072c5.442 14.196 5.442 29.835 0 44.032l-4.243 11.07c-1.623 4.231-2.321 8.855-2.021 13.374l.765 11.526c1.025 15.439-3.752 30.58-13.452 42.634l-7.518 9.344c-2.75 3.417-4.725 7.296-5.871 11.529l-2.948 10.89c-4.203 15.532-14.14 28.609-27.98 36.823l-10.473 6.216c-3.405 2.021-6.364 4.63-8.795 7.755l-6.708 8.624c-10.399 13.364-26.031 21.923-42.892 23.48l-11.906 1.1c-3.451.319-6.806 1.198-9.968 2.613l-10.331 4.619c-7.976 3.567-16.542 5.351-25.106 5.351z" fill="#fdbf00"/></g></g><g><path d="m445.449 206.947-4.244-11.072c-1.622-4.229-2.32-8.854-2.02-13.374l.765-11.524c1.024-15.437-3.752-30.578-13.452-42.634l-7.519-9.343c-2.749-3.417-4.724-7.296-5.871-11.529l-2.947-10.889c-4.204-15.534-14.141-28.611-27.981-36.825l-10.472-6.215c-3.407-2.021-6.365-4.631-8.795-7.754l-6.709-8.625c-10.397-13.365-26.03-21.923-42.889-23.48l-11.908-1.101c-3.452-.319-6.806-1.197-9.969-2.612l-10.33-4.619c-7.979-3.567-16.543-5.351-25.108-5.351v457.927c8.564 0 17.13-1.784 25.107-5.351l10.331-4.619c3.163-1.415 6.518-2.294 9.969-2.613l11.906-1.1c16.861-1.557 32.493-10.116 42.892-23.48l6.708-8.624c2.432-3.125 5.391-5.734 8.795-7.755l10.473-6.216c13.84-8.214 23.777-21.291 27.98-36.823l2.948-10.89c1.146-4.233 3.121-8.111 5.871-11.529l7.518-9.344c9.7-12.055 14.477-27.195 13.452-42.634l-.765-11.526c-.3-4.519.398-9.143 2.021-13.374l4.243-11.07c5.442-14.197 5.442-29.836 0-44.032z" fill="#f7a512"/></g><path d="m270.989 359.441v-69.639c34.041-3.687 60.631-32.59 60.631-67.596h-29.979c0 18.445-13.203 33.858-30.653 37.3v-41.298h-29.978v91.265c-17.45-3.442-30.653-18.856-30.653-37.3h-29.977c0 35.006 26.59 63.909 60.631 67.596v172.231h29.978v-122.264c34.041-3.687 60.631-32.59 60.631-67.596h-29.979c.001 18.445-13.202 33.858-30.652 37.301z" fill="#a14f42"/><g><path d="m270.989 359.441v-69.639c34.041-3.687 60.631-32.59 60.631-67.596h-29.979c0 18.445-13.203 33.858-30.653 37.3v-41.298h-14.988v293.792h14.989v-122.264c34.041-3.687 60.631-32.59 60.631-67.596h-29.979c.001 18.445-13.202 33.858-30.652 37.301z" fill="#873f30"/></g></g></svg>