<svg id="Capa_1" enable-background="new 0 0 511.993 511.993" height="512" viewBox="0 0 511.993 511.993" width="512" xmlns="http://www.w3.org/2000/svg"><g><path d="m262.04 511.993v-240.283h-17.606v126.435h-51.752c-11.669 0-21.163-9.493-21.163-21.163v-24.514h-29.939v24.514c0 28.177 22.924 51.101 51.101 51.101h51.752v83.909h17.607z" fill="#cc9b7c"/><path d="m317.312 289.186v48.081c0 10.306-8.385 18.69-18.691 18.69h-24.249v-84.247h-14.617v240.283h14.617v-126.098h24.249c26.814 0 48.629-21.814 48.629-48.628v-48.081z" fill="#bf825b"/><path d="m322.603 229.871h-98.672c-37.324 0-67.581-30.257-67.581-67.581v-94.709c0-37.324 30.257-67.581 67.581-67.581h98.672c37.324 0 67.581 30.257 67.581 67.581v94.709c0 37.324-30.257 67.581-67.581 67.581z" fill="#00a66c"/><path d="m322.603 0h-48.35v229.871h48.35c37.324 0 67.581-30.257 67.581-67.581v-94.709c0-37.324-30.257-67.581-67.581-67.581z" fill="#0d7669"/><path d="m402.675 303.673h-141.761c-38.775 0-70.209-31.434-70.209-70.209v-65.171c0-38.775 31.433-70.209 70.209-70.209h141.761c38.775 0 70.209 31.433 70.209 70.209v65.171c0 38.776-31.434 70.209-70.209 70.209z" fill="#59c36a"/><path d="m402.675 98.085h-69.957v205.589h69.957c38.775 0 70.209-31.433 70.209-70.209v-65.171c0-38.776-31.434-70.209-70.209-70.209z" fill="#00a66c"/><path d="m214.707 357.178h-116.101c-32.859 0-59.497-26.638-59.497-59.497v-86.594c0-32.859 26.638-59.497 59.497-59.497h116.101c32.859 0 59.497 26.638 59.497 59.497v86.594c0 32.859-26.638 59.497-59.497 59.497z" fill="#00a66c"/><path d="m214.707 151.589h-58.355v205.589h58.355c32.859 0 59.497-26.638 59.497-59.497v-86.594c0-32.86-26.638-59.498-59.497-59.498z" fill="#0d7669"/></g></svg>