<svg id="Capa_1" enable-background="new 0 0 512 512" height="512" viewBox="0 0 512 512" width="512" xmlns="http://www.w3.org/2000/svg"><g><g><path d="m257.116 274.649c10.414-25.315-1.168-274.649-1.168-274.649s-56.047 86.278-56.047 167.372c0 43.679 12.006 82.383 22.146 107.277z" fill="#59c36a"/><g><path d="m312.634 167.372c0-81.094-56.686-167.372-56.686-167.372v274.649h33.88c10.414-25.314 22.806-64.444 22.806-107.277z" fill="#00a66c"/></g></g><g><g><path d="m311.297 347.022c16.555-21.799 38.565-56.443 49.544-97.844 20.788-78.385-11.888-176.311-11.888-176.311s-76.291 69.028-97.079 147.412c-11.197 42.22-9.513 82.707-6.094 109.369l65.317 17.437z" fill="#0d7669"/></g><g><path d="m200.598 347.022c-16.555-21.799-38.565-56.443-49.544-97.844-20.788-78.385 11.888-176.311 11.888-176.311s76.291 69.028 97.079 147.412c11.197 42.22 9.513 82.707 6.094 109.369l-65.317 17.437z" fill="#00a66c"/></g></g><path d="m257.322 386.983h-34.953l-8.544 125.017h43.497z" fill="#a14f42"/><path d="m255.948 512h42.122l-8.544-125.017h-33.578z" fill="#873f30"/><g><path d="m290.036 391.937c22.387-15.752 53.866-42.089 76.884-78.21 43.581-68.389 42.142-171.612 42.142-171.612s-93.632 42.64-137.213 111.029c-23.474 36.836-34.148 75.927-38.975 102.37l56.952 36.424h.21z" fill="#00a66c"/></g><g><path d="m221.964 391.937c-22.387-15.752-53.866-42.089-76.884-78.21-43.581-68.389-42.142-171.612-42.142-171.612s93.632 42.64 137.213 111.029c23.473 36.836 34.148 75.927 38.975 102.37l-56.952 36.424h-.21z" fill="#59c36a"/></g><path d="m257.116 391.937c10.414-25.315-1.168-274.649-1.168-274.649s-56.047 86.278-56.047 167.372c0 43.679 12.006 82.383 22.146 107.277z" fill="#97de3d"/><g><path d="m312.634 284.66c0-81.094-56.686-167.372-56.686-167.372v274.649h33.88c10.414-25.314 22.806-64.444 22.806-107.277z" fill="#59c36a"/></g></g></svg>