<svg id="Capa_1" enable-background="new 0 0 512 512" height="512" viewBox="0 0 512 512" width="512" xmlns="http://www.w3.org/2000/svg"><g><g><g><path d="m364.222 387.494c-19.98 0-38.791-9.628-50.679-25.283-2.942.414-5.922.623-8.927.625-.016 0-.034 0-.049 0-16.944.001-32.878-6.594-44.871-18.571-14.161-14.141-20.663-34.286-17.98-53.791-15.706-11.873-25.38-30.702-25.394-50.715-.014-19.996 9.617-38.825 25.284-50.721-.415-2.941-.624-5.92-.626-8.924-.012-16.966 6.584-32.919 18.571-44.923 11.986-12.004 27.931-18.621 44.897-18.633h.045c2.988 0 5.952.205 8.879.613 11.874-15.682 30.691-25.339 50.686-25.354h.041c19.981 0 38.792 9.628 50.68 25.283 2.941-.414 5.92-.624 8.924-.626h.044c16.95 0 32.886 6.594 44.879 18.572 12.004 11.985 18.621 27.931 18.633 44.897.002 3.003-.203 5.983-.613 8.925 15.683 11.874 25.339 30.69 25.354 50.685.014 20.014-9.634 38.857-25.323 50.751 2.711 19.501-3.763 39.655-17.905 53.817-11.987 12.005-27.932 18.621-44.898 18.633-.015 0-.03 0-.046 0-2.988 0-5.952-.205-8.879-.613-11.874 15.683-30.69 25.339-50.685 25.354h-.001c-.013-.001-.028-.001-.041-.001z" fill="#19a995"/></g><g><path d="m512 239.553c-.015-19.995-9.671-38.811-25.354-50.685.41-2.942.615-5.922.613-8.925-.012-16.966-6.629-32.911-18.633-44.897-11.993-11.978-27.929-18.572-44.879-18.572-.014 0-.029 0-.044 0-3.004.002-5.983.212-8.924.626-11.876-15.639-30.66-25.262-50.619-25.281v295.674c.02 0 .04.002.061.002h.041.001c19.995-.015 38.811-9.671 50.685-25.354 2.927.408 5.891.613 8.879.613h.046c16.966-.012 32.911-6.628 44.898-18.633 14.142-14.162 20.616-34.316 17.905-53.817 15.69-11.894 25.338-30.737 25.324-50.751z" fill="#0d7579"/></g></g><g><g><path d="m147.899 387.494c-19.98 0-38.791-9.628-50.679-25.283-2.942.414-5.922.623-8.927.625-.016 0-.034 0-.049 0-16.944.001-32.878-6.594-44.871-18.571-14.161-14.141-20.663-34.286-17.98-53.791-15.706-11.874-25.379-30.703-25.393-50.716-.014-19.996 9.617-38.825 25.284-50.721-.415-2.941-.624-5.92-.626-8.924-.012-16.966 6.584-32.919 18.571-44.923 11.986-12.004 27.931-18.621 44.897-18.633h.045c2.988 0 5.952.205 8.879.613 11.874-15.682 30.691-25.339 50.686-25.354h.041c19.981 0 38.792 9.628 50.68 25.283 2.941-.414 5.92-.624 8.924-.626h.044c16.95 0 32.886 6.594 44.879 18.572 12.004 11.985 18.621 27.931 18.633 44.897.002 3.003-.203 5.983-.613 8.925 15.683 11.874 25.339 30.69 25.354 50.685.014 20.014-9.634 38.857-25.323 50.751 2.711 19.501-3.763 39.655-17.905 53.817-11.987 12.005-27.932 18.621-44.898 18.633-.015 0-.03 0-.046 0-2.988 0-5.952-.205-8.879-.613-11.874 15.683-30.69 25.339-50.685 25.354h-.001c-.014 0-.029 0-.042 0z" fill="#19a995"/></g><g><path d="m295.677 239.553c-.015-19.995-9.671-38.811-25.354-50.685.41-2.942.615-5.922.613-8.925-.012-16.966-6.629-32.911-18.633-44.897-11.993-11.978-27.929-18.572-44.879-18.572-.014 0-.029 0-.044 0-3.004.002-5.983.212-8.924.626-11.876-15.639-30.66-25.262-50.619-25.281v295.674c.02 0 .04.002.061.002h.041.001c19.995-.015 38.811-9.671 50.685-25.354 2.927.408 5.891.613 8.879.613h.046c16.966-.012 32.911-6.628 44.898-18.633 14.142-14.162 20.616-34.316 17.905-53.817 15.691-11.894 25.338-30.737 25.324-50.751z" fill="#0d7579"/></g></g><g><g><path d="m241.002 280.947h29.997v231.053h-29.997z" fill="#a14f42"/></g></g><g><path d="m256 280.947h14.998v231.053h-14.998z" fill="#873f30"/></g><g><g><path d="m255.939 0h-.041c-19.994.015-38.811 9.672-50.685 25.354-2.927-.408-5.891-.613-8.879-.613h-.045c-16.966.012-32.911 6.629-44.897 18.633-11.987 12.004-18.583 27.957-18.571 44.923.002 3.004.211 5.983.626 8.924-15.667 11.896-25.298 30.725-25.284 50.721.014 20.014 9.687 38.843 25.394 50.715-2.684 19.505 3.818 39.65 17.98 53.791 11.993 11.977 27.926 18.572 44.871 18.571h.049c3.005-.002 5.985-.211 8.927-.625 11.888 15.656 30.699 25.283 50.679 25.283h.042c2.681-.002 7.964-141.538 7.964-141.538s-5.393-154.139-8.13-154.139z" fill="#97de3d"/></g><g><path d="m403.839 147.736c-.015-19.995-9.671-38.811-25.354-50.685.41-2.942.615-5.922.613-8.925-.012-16.966-6.629-32.911-18.633-44.897-11.993-11.978-27.929-18.572-44.879-18.572-.014 0-.029 0-.044 0-3.004.002-5.983.212-8.924.626-11.875-15.639-30.66-25.261-50.618-25.281v295.674c.02 0 .04.002.061.002h.041.001c19.995-.015 38.811-9.671 50.685-25.354 2.927.408 5.891.613 8.879.613h.046c16.966-.012 32.911-6.628 44.898-18.633 14.142-14.162 20.616-34.316 17.905-53.817 15.689-11.894 25.336-30.736 25.323-50.751z" fill="#59c36a"/></g></g></g></svg>