<svg id="Capa_1" enable-background="new 0 0 512 512" height="512" viewBox="0 0 512 512" width="512" xmlns="http://www.w3.org/2000/svg"><g><g><g><path d="m385.943 328.088-114.586 96.449v-230.402h-29.999v230.822l-115.53-96.966-19.189 23.06 134.719 112.931v48.018h29.999v-48.109l134.004-112.937z" fill="#d9ad90"/></g><g><path d="m385.943 328.088-114.586 96.449v-230.402h-15.357v317.865h15.357v-48.109l134.004-112.937z" fill="#cc9b7c"/></g></g><path d="m276.487 0h-37.222c-76.9 0-139.463 62.563-139.463 139.463 0 31.585 25.696 57.282 57.282 57.282h201.585c31.585 0 57.282-25.696 57.282-57.282-.001-76.9-62.564-139.463-139.464-139.463z" fill="#00a66c"/><path d="m276.487 0h-20.487v196.745h102.668c31.585 0 57.282-25.697 57.282-57.282 0-76.9-62.563-139.463-139.463-139.463z" fill="#0d7669"/><g><g><g><g><path d="m120.139 227.192h-16.715c-49.82 0-90.352 40.532-90.352 90.353 0 22.506 18.31 40.816 40.816 40.816h66.251z" fill="#97de3d"/></g><g><path d="m125.86 227.192h-11.006v131.168h60.543c22.506 0 40.815-18.31 40.815-40.816.001-49.819-40.532-90.352-90.352-90.352z" fill="#59c36a"/></g></g></g><g><g><path d="m402.854 227.192h-16.715c-49.82 0-90.352 40.532-90.352 90.353 0 22.506 18.31 40.816 40.816 40.816h66.251z" fill="#97de3d"/></g><g><path d="m408.575 227.192h-12.001v131.168h61.538c22.506 0 40.815-18.31 40.815-40.816.001-49.819-40.532-90.352-90.352-90.352z" fill="#59c36a"/></g></g></g></g></svg>