<svg id="Capa_1" enable-background="new 0 0 512 512" height="512" viewBox="0 0 512 512" width="512" xmlns="http://www.w3.org/2000/svg"><g><g><g><g><path d="m218.54 379.464h74.921v132.536h-74.921z" fill="#cc9b7c"/></g></g><g><path d="m256 379.464h37.461v132.536h-37.461z" fill="#bf825b"/></g><g><g><path d="m258.117 271.009-.987-.167-97.273 14.447-88.396 107.382c-8.471 10.291-9.216 24.671-1.853 35.781 7.364 11.111 20.897 16.029 33.675 12.238l152.717-44.632 2.117.628z" fill="#fdbf00"/></g></g><g><path d="m440.985 393.974-82.306-105.889-101.549-17.243-1.13.168v125.049l152.643 45.286c2.954.876 5.925 1.302 8.841 1.302 9.716 0 18.818-4.72 24.605-13.199 7.523-11.024 7.087-24.951-1.104-35.474z" fill="#f7a512"/></g></g><path d="m258.451 160.526-3.405-.82-96.81 25.817-63.502 92.208c-7.322 10.615-7.184 24.236.35 34.701 5.807 8.066 14.784 12.559 24.267 12.559 2.822 0 5.689-.398 8.53-1.218l128.119-37.304 2.451.701z" fill="#fed330"/><g><path d="m416.639 276.229-70.347-94.541-90.292-21.752v126.533l128.1 36.652c12.609 3.641 25.6-.973 33.09-11.753 7.49-10.781 7.281-24.562-.551-35.139z" fill="#fdbf00"/></g><g><path d="m258.011 2.573-2.011-2.573-118.864 152.058c-8.35 10.681-8.618 25.235-.666 36.216 5.824 8.042 14.843 12.494 24.264 12.494 30.16-2.256 95.267-32.454 95.267-32.454l2.011.725v-166.466z" fill="#fee46f"/><path d="" fill="#97de3d"/></g><g><path d="m374.865 152.058-118.865-152.058v168.313l84.915 30.628c12.755 4.601 26.663.314 34.615-10.667 7.952-10.98 7.685-25.534-.665-36.216z" fill="#fed330"/></g></g></svg>