<svg id="Capa_1" enable-background="new 0 0 512 512" height="512" viewBox="0 0 512 512" width="512" xmlns="http://www.w3.org/2000/svg"><g><g><g><path d="m359.669 440.138h-207.338c-29.842 0-57.657-14.745-74.406-39.444-16.749-24.698-20.157-55.994-9.117-83.719l103.669-260.333c13.702-34.408 46.487-56.642 83.523-56.642s69.821 22.234 83.523 56.642l103.669 260.334c11.041 27.724 7.633 59.021-9.117 83.719-16.749 24.698-44.564 39.443-74.406 39.443z" fill="#fc445f"/></g></g><g><path d="m443.192 316.976-103.669-260.334c-13.702-34.408-46.487-56.642-83.523-56.642v440.138h103.669c29.842 0 57.657-14.745 74.406-39.444 16.75-24.698 20.158-55.994 9.117-83.718z" fill="#e1105a"/></g><path d="m377.436 364.855-13.133-27.028-93.278 45.324v-30.517l83.333-40.491-13.133-27.027-70.2 34.11v-33.742l60.133-29.218-13.133-27.027-47 22.836v-30.521l41.926-20.372-13.133-27.027-43.818 21.197-43.865-21.22-13.039 27.073 41.879 20.171v30.499l-47.047-22.66-13.039 27.074 60.086 28.94v33.697l-70.247-33.834-13.039 27.074 83.286 40.114v30.473l-93.325-44.948-13.039 27.074 106.364 51.227v95.894h30.05v-95.441z" fill="#a14f42"/><g><path d="m364.303 337.827-93.278 45.324v-30.517l83.333-40.491-13.133-27.027-70.2 34.11v-33.742l60.133-29.218-13.133-27.027-47 22.836v-30.521l41.926-20.372-13.133-27.027-43.818 21.197v316.648h15.025v-95.441l106.411-51.704z" fill="#873f30"/></g></g></svg>