<svg id="Capa_1" enable-background="new 0 0 512 512" height="512" viewBox="0 0 512 512" width="512" xmlns="http://www.w3.org/2000/svg"><g><g><g><path d="m256 455.04c-71.968 0-130.518-58.55-130.518-130.519 0-31.304 11.393-61.635 31.65-85.191-20.512-23.56-31.65-53.033-31.65-84.441 0-30.85 21.086-65.699 62.673-103.58 29.52-26.889 67.845-51.309 67.845-51.309s20.269 55.357 36.655 91.771c26.753 59.449 35.313 363.269-36.655 363.269z" fill="#404aa4"/></g></g><g><path d="m386.518 154.888c0-30.85-21.086-65.698-62.673-103.58-29.52-26.888-67.845-51.308-67.845-51.308v455.04c71.968 0 130.518-58.551 130.518-130.519 0-37.915-19.021-68.858-30.913-84.499 19.784-23.497 30.913-53.815 30.913-85.134z" fill="#363d7e"/></g><path d="m256.461 284.409-15.371 15.372v212.219h15.811z" fill="#a14f42"/><g><path d="m298.87 323.503-27.96 27.57v-38.941l37.366-37.367-21.086-21.086-31.19 31.191v227.13h14.91v-119.046l48.898-48.218z" fill="#873f30"/></g></g></svg>