<svg id="Capa_1" enable-background="new 0 0 512 512" height="512" viewBox="0 0 512 512" width="512" xmlns="http://www.w3.org/2000/svg"><g><path d="m271.128 163.569 65.174-65.174h75.837v-30h-45.837l33.083-33.083-21.213-21.213-33.063 33.063v-47.162h-30v77.162l-43.981 43.981v-121.143h-30v121.143l-44.237-44.237v-76.906h-30v46.906l-32.807-32.807-21.213 21.213 33.083 33.083h-46.092v30h76.092l65.174 65.174v105.537l-44.237-44.237v-75.54h-30v45.54l-32.807-32.807-21.213 21.213 33.084 33.084h-46.093v30h76.093l65.173 65.173v200.468h30v-200.468l65.173-65.173h75.838v-30h-45.838l33.084-33.084-21.213-21.213-33.063 33.063v-45.796h-30v75.796l-43.981 43.981z" fill="#b5d2d6"/><g><path d="m336.302 98.395h75.837v-30h-45.837l33.083-33.083-21.213-21.213-33.063 33.063v-47.162h-30v77.162l-43.981 43.981v-121.143h-15v512h15v-200.468l65.173-65.173h75.838v-30h-45.838l33.084-33.084-21.213-21.213-33.063 33.063v-45.796h-30v75.796l-43.981 43.981v-105.537z" fill="#a0b3be"/></g></g></svg>