<svg id="Capa_1" enable-background="new 0 0 512 512" height="512" viewBox="0 0 512 512" width="512" xmlns="http://www.w3.org/2000/svg"><g><path d="m259.112 512v-291.709l-48.062.051-5.889 80.458-83.781-31.164c-5.452-2.023-9.115-7.291-9.115-13.107v-41.941h-30v41.941c0 18.297 11.524 34.866 28.667 41.229l91.949 34.203-13.178 180.039z" fill="#d9ad90"/><path d="m400.619 214.587v41.941c0 5.816-3.663 11.084-9.154 13.121l-84.588 31.656-5.926-80.964-.94.088.055-.182-44.066.047v291.706h66.297l-13.138-179.516 92.784-34.724c17.152-6.366 28.677-22.937 28.677-41.232v-41.941z" fill="#cc9b7c"/></g><g><g><path d="m255.236 0c-47.856 0-86.79 38.934-86.79 86.79l86.687 73.816 86.894-73.816c0-47.856-38.934-86.79-86.791-86.79z" fill="#00a66c"/></g><g><path d="m256 .01v159.86l86.027-73.079c0-47.602-38.522-86.369-86.027-86.781z" fill="#0d7669"/></g></g><path d="m255.846 138.638c-8.694-38.739-43.362-67.773-84.686-67.773-47.856 0-86.79 38.934-86.79 86.79l86.687 45.461 84.787-44.359c-.001.001 1.116-25.083.002-20.119z" fill="#59c36a"/><g><path d="m427.322 157.655c0-47.856-38.935-86.79-86.791-86.79-41.101 0-75.605 28.724-84.531 67.148v20.826l84.428 44.277z" fill="#00a66c"/></g><path d="m259.112 136.322c-.98-.033-1.961-.064-2.949-.064-41.325 0-75.992 29.034-84.686 67.773-8.694-38.739-43.362-67.773-84.686-67.773-47.856 0-86.79 38.934-86.79 86.79l259.112.026v-86.752z" fill="#97de3d"/><g><path d="m425.209 136.308c-41.068 0-75.548 28.678-84.509 67.056-8.94-38.406-43.45-67.107-84.538-67.107-.054 0-.108.003-.162.004v86.812l256 .025c0-47.856-38.935-86.79-86.791-86.79z" fill="#59c36a"/></g></svg>