<svg id="Capa_1" enable-background="new 0 0 512 512" height="512" viewBox="0 0 512 512" width="512" xmlns="http://www.w3.org/2000/svg"><g><g><g><path d="m256 445.045-10.496-10.255c-1.678-1.64-41.559-40.733-82.101-91.538-55.83-69.963-84.138-125.988-84.138-166.517-.001-97.452 79.282-176.735 176.735-176.735s12.174 433.15 10.496 434.79z" fill="#00a66c"/></g><g><path d="m256 445.045-10.496-10.255c-1.678-1.64-41.559-40.733-82.101-91.538-55.83-69.963-84.138-125.988-84.138-166.517-.001-97.452 79.282-176.735 176.735-176.735s176.736 79.283 176.736 176.736c0 40.529-28.308 96.554-84.138 166.517-40.542 50.805-80.423 89.898-82.101 91.538z" fill="#b5d2d6"/></g></g><g><path d="m256 0v445.045l10.496-10.255c1.678-1.64 41.559-40.733 82.101-91.538 55.83-69.963 84.138-125.988 84.138-166.517.001-97.452-79.282-176.735-176.735-176.735z" fill="#a0b3be"/></g><path d="m240.98 220.025h17.213v291.975h-17.213z" fill="#a14f42"/><g><path d="m303.656 247.038-32.636 43.588v-70.601h-15.02v291.975h15.02v-171.254l56.682-75.704z" fill="#873f30"/></g></g></svg>