<svg id="Capa_1" enable-background="new 0 0 512 512" height="512" viewBox="0 0 512 512" width="512" xmlns="http://www.w3.org/2000/svg"><g><g><path d="m257.275 512v-273.762l-13.375-1.906-62.464-81.131-23.51 18.1 59.739 73.129v173.952l-117.46-99.731-19.204 22.617 136.664 116.037v52.695z" fill="#a14f42"/><path d="m368.479 230.487-79.547 78.09v-65.827l-34.96-4.983v274.233h34.96v-161.515l100.332-98.826z" fill="#873f30"/><path d="m245.385 0h-26.101c-90.673 0-164.44 73.767-164.44 164.44v14.835h190.541z" fill="#00a66c"/><path d="m375.098 36.521c-29.12-23.551-65.82-36.521-103.34-36.521h-27.364v179.275h164.146l23.603-51.274c-8.1-35.791-28.358-68.279-57.045-91.48z" fill="#0d7669"/><g><path d="m365.605 110.785h-18.849c-71.203 0-129.131 57.928-129.131 129.131v16.551h147.979v-145.682z" fill="#59c36a"/></g><g><path d="m382.869 110.785h-19.246v145.682h148.377v-16.551c0-71.203-57.928-129.131-129.131-129.131z" fill="#00a66c"/></g></g><g><path d="m88.835 242.429h-5.608c-45.891 0-83.227 37.335-83.227 83.227v22.542h88.835z" fill="#97de3d"/></g><g><path d="m90.935 242.429h-4.081v105.77h87.31v-22.542c-.001-45.893-37.338-83.228-83.229-83.228z" fill="#59c36a"/></g></g></svg>