<svg id="Capa_1" enable-background="new 0 0 512 512" height="512" viewBox="0 0 512 512" width="512" xmlns="http://www.w3.org/2000/svg"><g><path d="m209.364 221.774v75.732h-91.971c-10.837 0-19.653-8.817-19.653-19.653v-28.726h-29.98v28.726c0 27.368 22.265 49.634 49.633 49.634h91.971v184.282h44.641l3.971-274.642z" fill="#d9ad90"/><path d="m378.601 280.652v39.737c0 10.837-8.817 19.653-19.653 19.653h-59.312v-88.81l-45.636-15.361v275.897h45.636v-141.746h59.312c27.368 0 49.634-22.266 49.634-49.634v-39.737h-29.981z" fill="#cc9b7c"/><path d="m118.644 73.5c-65.42 0-118.644 53.223-118.644 118.644v72.62h138.087l11.526-187.178c-10.051-2.711-20.47-4.086-30.969-4.086z" fill="#00a66c"/><path d="m374.61 118.876c0-65.421-53.224-118.645-118.645-118.645-65.42 0-118.644 53.223-118.644 118.645v145.888h237.356z" fill="#59c36a"/><g><path d="m374.61 118.876c0-65.421-53.224-118.645-118.645-118.645-.657 0-1.311.014-1.966.025v264.508h120.678z" fill="#00a66c"/></g><g><path d="m394.16 295.67h-119.282v-72.517c0-65.42 53.382-118.644 118.998-118.644 31.679 0 26.706 86.941 26.706 118.644z" fill="#97de3d"/></g><g><path d="m477.547 139.296c-22.278-22.433-51.993-34.787-83.671-34.787-.052 0-.104.002-.156.002v191.159h118.28v-72.518c0-31.702-12.236-61.484-34.453-83.856z" fill="#59c36a"/></g></g></svg>