<svg id="Capa_1" enable-background="new 0 0 512 512" height="512" viewBox="0 0 512 512" width="512" xmlns="http://www.w3.org/2000/svg"><g><g><g><g><path d="m255.809 444.351c-65.989 0-126.622-31.587-162.194-84.496l-4.734-6.731c17.654-37.158 167.119-353.124 167.119-353.124s142.105 299.626 167.119 352.464l-5.116 7.391c-35.572 52.908-96.205 84.496-162.194 84.496z" fill="#fc445f"/></g></g></g><g><path d="m256 0v444.348c65.915-.061 126.466-31.636 162.003-84.493l5.116-7.391c-25.014-52.837-167.119-352.464-167.119-352.464z" fill="#e1105a"/></g><path d="m258.049 512v-224.561h-17.09v61.95c-20.408-3.789-38.375-15.217-49.764-32.156l-24.966 16.785c16.972 25.244 44.203 41.72 74.729 45.822v132.16z" fill="#a14f42"/><g><path d="m320.805 317.232c-11.389 16.939-29.355 28.368-49.764 32.157v-61.95h-15.041v224.561h15.042v-132.16c30.526-4.102 57.757-20.578 74.729-45.823z" fill="#873f30"/></g></g></svg>