<svg id="Capa_1" enable-background="new 0 0 512 512" height="512" viewBox="0 0 512 512" width="512" xmlns="http://www.w3.org/2000/svg"><g><path d="m333.104 388.15-19.457-22.85-42.641 36.309v-131.477h-30.012v131.459l-42.964-36.615-19.467 22.841 62.431 53.206v70.977h30.012v-70.973z" fill="#b95d4f"/><g><path d="m313.647 365.3-42.641 36.309v-131.477h-15.006v241.868h15.006v-70.973l62.098-52.877z" fill="#a14f42"/></g><g><g><path d="m345.747 399.269c-13.22 0-24.57-4.297-32.952-12.68-12.227-12.227-15.761-30.771-9.948-52.215 5.021-18.521 16.725-37.66 32.958-53.893s35.372-27.938 53.893-32.958c21.443-5.812 39.987-2.279 52.215 9.948 12.227 12.226 15.761 30.77 9.947 52.214-5.021 18.521-16.725 37.66-32.958 53.893s-35.372 27.938-53.893 32.958c-6.743 1.828-13.2 2.733-19.262 2.733z" fill="#59c36a"/></g><g><path d="m166.253 399.269c-6.063 0-12.519-.905-19.262-2.733-18.52-5.021-37.66-16.725-53.893-32.958s-27.938-35.372-32.958-53.893c-5.813-21.444-2.28-39.987 9.948-52.214 12.226-12.229 30.769-15.762 52.214-9.948 18.521 5.02 37.661 16.725 53.893 32.958s27.938 35.372 32.958 53.893c5.813 21.444 2.28 39.987-9.948 52.215-8.382 8.383-19.733 12.68-32.952 12.68z" fill="#97de3d"/></g></g><g><path d="m256 284.309c-49.174 0-87.695-62.442-87.695-142.155s38.521-142.154 87.695-142.154 49.174 284.309 0 284.309z" fill="#97de3d"/></g><g><path d="m343.694 142.155c0-79.713-38.52-142.155-87.694-142.155v284.309c49.174 0 87.694-62.442 87.694-142.154z" fill="#59c36a"/></g></g></svg>