<svg id="Capa_1" enable-background="new 0 0 512 512" height="512" viewBox="0 0 512 512" width="512" xmlns="http://www.w3.org/2000/svg"><g><g><path d="m256 0-211.863 361.741v4.068c0 35.36 28.767 64.126 64.126 64.126 19.79 0 37.511-9.016 49.284-23.151 11.772 14.135 29.493 23.151 49.283 23.151 19.791 0 37.512-9.016 49.284-23.151 11.772 14.135 29.493 23.151 49.283 23.151 19.728 0 37.397-8.961 49.17-23.019 11.773 14.058 29.442 23.019 49.17 23.019 35.359 0 64.125-28.766 64.125-64.126v-4.068z" fill="#19a995"/></g><g><path d="m256 0v406.915c.037-.044.078-.086.115-.131 11.772 14.135 29.493 23.151 49.283 23.151 19.728 0 37.397-8.961 49.17-23.019 11.773 14.058 29.442 23.019 49.17 23.019 35.359 0 64.125-28.766 64.125-64.126v-4.068z" fill="#0d7579"/></g><g><path d="m331.664 262.044h-29.995c0 18.455-13.21 33.877-30.67 37.321v-41.322h-29.995v41.322c-17.46-3.444-30.67-18.866-30.67-37.321h-29.995c0 35.026 26.605 63.945 60.666 67.634v182.322h29.995v-182.322c34.059-3.689 60.664-32.608 60.664-67.634z" fill="#d9ad90"/><g><path d="m301.668 262.044c0 18.455-13.21 33.877-30.67 37.321v-41.322h-14.998v253.957h14.998v-182.322c34.061-3.689 60.666-32.609 60.666-67.634z" fill="#cc9b7c"/></g></g></g></svg>