<svg id="Capa_1" enable-background="new 0 0 512 512" height="512" viewBox="0 0 512 512" width="512" xmlns="http://www.w3.org/2000/svg"><g><g><g><path d="m222.1 154.255h67.8v95.119h-67.8z" fill="#d9ad90"/><path d="m222.1 416.852h67.8v95.148h-67.8z" fill="#cc9b7c"/></g></g><g><path d="m256 154.255h33.9v95.119h-33.9z" fill="#cc9b7c"/><path d="m256 416.852h33.9v95.148h-33.9z" fill="#bf825b"/></g><g><g><g><path d="m464.735 66.798c-9.209-25.421-27.768-45.734-52.256-57.197-24.489-11.464-51.974-12.704-77.395-3.493l-27.498 9.963c-22.287 8.075-40.016 23.214-51.586 41.977-11.57-18.764-29.299-33.903-51.586-41.978l-27.498-9.963c-25.419-9.209-52.906-7.97-77.394 3.493-24.489 11.464-43.047 31.777-52.257 57.198l-5.124 14.142 213.859 77.483 213.859-77.483z" fill="#59c36a"/></g></g></g><g><path d="m464.735 66.798c-9.209-25.421-27.768-45.734-52.256-57.197-24.489-11.464-51.974-12.704-77.395-3.493l-27.498 9.963c-22.287 8.075-40.016 23.214-51.586 41.977v100.375l213.859-77.483z" fill="#00a66c"/></g><path d="m256 122.466c-28.635-35.054-78.501-47.687-121.319-27.644l-26.489 12.399c-24.488 11.463-43.046 31.775-52.257 57.196-9.21 25.421-7.969 52.907 3.494 77.395l6.377 13.624 190.194-89.029 7.725-20.902s-6.693-24.302-7.725-23.039z" fill="#97de3d"/><g><path d="m456.065 164.417c-9.211-25.421-27.769-45.733-52.257-57.196l-26.489-12.399c-42.817-20.042-92.684-7.41-121.319 27.644v43.941l190.193 89.029 6.377-13.624c11.463-24.488 12.704-51.974 3.495-77.395z" fill="#59c36a"/></g><g><path d="m222.1 331.301h33.9v85.735h-33.9z" fill="#d9ad90"/><path d="m222.1 245.566h33.9v85.735h-33.9z" fill="#cc9b7c"/><path d="m256 245.566h33.9v85.735h-33.9z" fill="#bf825b"/><path d="m256 331.301h33.9v85.735h-33.9z" fill="#cc9b7c"/></g></g></svg>