<svg id="Capa_1" enable-background="new 0 0 512 512" height="512" viewBox="0 0 512 512" width="512" xmlns="http://www.w3.org/2000/svg"><g><path d="m437.321 221.796-42.723-4.229-123.454 104.827v-140.333h-30.288v137.989l-123.277-102.58-42.9 3.335 166.177 138.613v136.877h30.288v-134.11z" fill="#a14f42"/><g><path d="m394.598 217.567-123.454 104.827v-140.333h-15.144v314.234h15.144v-134.11l166.177-140.389z" fill="#873f30"/></g><g><path d="m344.679 194.053h-177.358c-49.249 0-89.174-39.925-89.174-89.174 0-49.249 39.925-89.174 89.174-89.174h177.358c49.249 0 89.174 39.925 89.174 89.174 0 49.249-39.925 89.174-89.174 89.174z" fill="#00a66c"/><g><path d="m344.679 15.705h-88.679v178.348h88.679c49.25 0 89.174-39.925 89.174-89.174 0-49.25-39.925-89.174-89.174-89.174z" fill="#0d7669"/></g></g><g><g><path d="m119.707 117.476h-60.827c-32.467 0-58.88 26.413-58.88 58.879 0 32.467 26.413 58.88 58.88 58.88h60.827z" fill="#97de3d"/></g><g><path d="m180.56 117.476h-61.348v117.759h61.348c32.467 0 58.88-26.413 58.88-58.88 0-32.466-26.414-58.879-58.88-58.879z" fill="#59c36a"/></g></g><g><g><path d="m392.267 117.476h-60.828c-32.467 0-58.88 26.413-58.88 58.879 0 32.467 26.413 58.88 58.88 58.88h60.828z" fill="#97de3d"/></g><g><path d="m453.12 117.476h-61.348v117.759h61.348c32.467 0 58.88-26.413 58.88-58.88 0-32.466-26.414-58.879-58.88-58.879z" fill="#59c36a"/></g></g></g></svg>