<svg id="Capa_1" enable-background="new 0 0 512 512" height="512" viewBox="0 0 512 512" width="512" xmlns="http://www.w3.org/2000/svg"><g><g><g><path d="m214.432 379.464h83.137v132.536h-83.137z" fill="#b95d4f"/></g></g><g><path d="m256 379.464h41.568v132.536h-41.568z" fill="#a14f42"/></g><g><path d="m257.275 300.825h-133.59l-120.323 134.202h253.913z" fill="#00a66c"/></g><g><path d="m388.315 300.825h-132.315v134.202h252.638z" fill="#0d7669"/></g><path d="m257.275 205.01h-117.96l-104.19 121.249h222.15z" fill="#59c36a"/><g><path d="m372.685 205.01h-116.685v121.249h220.875z" fill="#00a66c"/></g><g><path d="m257.275 57.604-2.642-1.771-89.484 62.361-75.341 98.152h167.467z" fill="#97de3d"/></g><g><path d="m345.439 116.718-89.439-59.968v159.596h165.889z" fill="#59c36a"/></g><g><path d="m179.827 114.898c7.745.402 14.605 4.354 18.825 10.844 12.508 19.234 33.682 30.808 56.64 30.962.154.001.308.001.461.001 22.782 0 43.907-11.267 56.579-30.195l.917-1.367c4.287-6.406 11.172-10.264 18.885-10.589 5.597-.223 10.865 1.416 15.174 4.6l-91.433-119.154-92.079 119.957c4.496-3.557 10.112-5.375 16.031-5.059z" fill="#dbeffa"/></g><g><path d="m256 .163v156.538c22.687-.082 43.706-11.332 56.332-30.191l.917-1.367c4.287-6.406 11.172-10.264 18.885-10.589 5.597-.223 10.865 1.416 15.174 4.6z" fill="#cbe8f8"/></g></g></svg>