<svg id="Capa_1" enable-background="new 0 0 512 512" height="512" viewBox="0 0 512 512" width="512" xmlns="http://www.w3.org/2000/svg"><g><g><g><path d="m218.54 282.143h74.921v229.857h-74.921z" fill="#b95d4f"/></g></g><path d="m341.637 318.553v34.508c0 11.028-8.972 20-20 20h-28.177v-90.918h-37.46v229.857h37.461v-108.938h28.177c27.57 0 50-22.43 50-50v-34.508h-30.001z" fill="#a14f42"/><g fill="#97de3d"><path d="m259.958.123c-1.311-.073-2.629-.123-3.958-.123-31.579 0-58.411 20.712-67.625 49.265-12.177-9.793-27.642-15.662-44.448-15.662-39.169 0-71.036 31.867-71.036 71.037v7.433h-1.854c-39.17 0-71.037 31.867-71.037 71.036 0 .071 0 .142.001.213-.001.072-.001.143-.001.214 0 39.169 31.867 71.036 71.037 71.036h1.854v7.433c0 39.17 31.867 71.037 71.036 71.037 16.807 0 32.271-5.869 44.448-15.662 9.214 28.553 36.046 49.265 67.625 49.265 1.329 0 2.647-.05 3.958-.123z"/><path d="m.013 182.88v.012c-.001-.004 0-.008 0-.012z"/></g><g><path d="m512 183.109c0-39.169-31.867-71.036-71.037-71.036h-1.854v-7.433c0-39.17-31.867-71.037-71.036-71.037-16.807 0-32.271 5.869-44.448 15.662-9.214-28.553-36.046-49.265-67.625-49.265v366.646c31.579 0 58.411-20.712 67.625-49.265 12.177 9.793 27.642 15.662 44.448 15.662 39.169 0 71.036-31.867 71.036-71.037v-7.433h1.854c39.17 0 71.037-31.867 71.037-71.036 0-.071 0-.142-.001-.213.001-.072.001-.143.001-.215zm-.013.656c0-.004 0-.008 0-.012.001.004 0 .008 0 .012z" fill="#59c36a"/></g></g></svg>