<svg id="Capa_1" enable-background="new 0 0 512 512" height="512" viewBox="0 0 512 512" width="512" xmlns="http://www.w3.org/2000/svg"><g><g><g><path d="m218.54 379.464h74.921v132.536h-74.921z" fill="#a14f42"/></g></g><g><path d="m256 379.464h37.461v132.536h-37.461z" fill="#873f30"/></g><g><g><path d="m259.112.109c-1.032-.066-2.069-.109-3.112-.109-15.039 0-28.923 6.813-38.221 17.834-6.932-3.541-14.693-5.439-22.75-5.439-6.724 0-13.286 1.339-19.505 3.979-12.282 5.213-21.799 14.897-26.797 27.269-.282.697-.547 1.398-.797 2.102-.746-.033-1.495-.049-2.246-.049-13.343 0-25.887 5.196-35.322 14.631-10.635 10.634-15.634 25.271-14.415 39.64-13.834 4.451-25.244 14.811-30.912 28.84-5.329 13.191-4.614 27.856 1.309 40.289-10.149 9.31-16.306 22.639-16.306 36.866 0 15.052 6.825 28.947 17.863 38.246-.665 1.303-1.273 2.638-1.824 4-4.997 12.371-4.879 25.948.334 38.229 5.6 13.193 16.391 23.054 29.412 27.624-.576 13.739 4.496 27.493 14.54 37.539 9.436 9.435 21.98 14.63 35.322 14.63 1.459 0 2.915-.064 4.362-.19.449 1.381.96 2.746 1.53 4.09 5.214 12.283 14.898 21.799 27.269 26.797 5.987 2.418 12.279 3.645 18.702 3.645 7.558 0 14.947-1.717 21.626-4.912 9.308 10.124 22.622 16.264 36.827 16.264 1.044 0 2.08-.04 3.112-.105v-411.71z" fill="#97de3d"/></g></g><g><path d="m445.689 242.797c10.13-9.309 16.273-22.626 16.273-36.835 0-15.052-6.826-28.947-17.863-38.246.665-1.303 1.273-2.637 1.824-4 4.998-12.372 4.88-25.949-.334-38.23-5.594-13.178-16.367-23.033-29.369-27.609.032-.741.048-1.484.048-2.231 0-13.343-5.196-25.887-14.632-35.322-9.434-9.435-21.978-14.63-35.321-14.63-1.459 0-2.915.064-4.362.19-.449-1.382-.96-2.747-1.53-4.091-5.215-12.282-14.898-21.798-27.268-26.796-5.987-2.419-12.279-3.646-18.704-3.646-7.558 0-14.946 1.717-21.625 4.912-9.307-10.123-22.621-16.263-36.826-16.263v411.924c15.04 0 28.924-6.813 38.222-17.833 6.932 3.541 14.693 5.439 22.75 5.439 6.722 0 13.284-1.339 19.505-3.979 13.079-5.552 22.936-16.41 27.547-29.372.76.034 1.525.051 2.292.051 13.343 0 25.887-5.196 35.321-14.631 9.436-9.435 14.632-21.979 14.632-35.322 0-1.448-.063-2.893-.187-4.329 13.82-4.457 25.219-14.813 30.882-28.831 4.998-12.37 4.88-25.947-.333-38.23-.299-.706-.614-1.403-.942-2.09z" fill="#59c36a"/></g></g></svg>